<svg class="svg-icon" style="width: 1em; height: 1em;vertical-align: middle;fill: currentColor;overflow: hidden;" viewBox="0 0 1024 1024" version="1.1" xmlns="http://www.w3.org/2000/svg"><path d="M509.609 620.391c-48.185 0-87.246 39.056-87.246 87.241 0 48.189 39.062 87.247 87.247 87.247 48.189 0 87.247-39.056 87.247-87.247 0-48.185-39.059-87.241-87.247-87.241z" fill="#D4CD3F" /><path d="M806.913 569.139c-38.151 38.502-76.624 76.742-116.18 116.297l-167.468-167.468c44.822-44.763 86.601-88.561 130.955-129.609 12.201-11.264 31.481-17.437 48.479-20.48 48.538-8.777 101.435 25.073 128.322 79.082 20.746 41.574 12.201 85.519-24.137 122.178M797.49 361.296c-52.078-36.396-122.469-37.010-165.303 4.477-95.554 92.511-190.375 185.958-282.244 282.156-57.344 60.006-45.524 140.317 23.523 204.976 57.637 53.892 138.006 54.506 193.039 0.673 44.032-43.095 87.246-87.040 130.81-130.604l1.17 1.17c33.733-33.703 67.642-67.145 101.054-101.172 17.319-17.643 36.777-34.231 50.029-54.624 45.876-70.714 24.048-154.010-52.078-207.053M348.628 344.357c-31.51-21.65-66.794-32.007-105.999-17.818l80.574 258.867c48.187-23.698 77.648-58.514 84.29-109.714 7.168-55.12-13.401-100.059-58.865-131.334M138.503 427.856c-13.107 60.27 6.819 110.095 58.222 144.647 30.721 20.656 64.658 32.475 104.126 16.969-26.917-86.484-53.043-170.569-80.165-257.463-46.519 17.701-72.355 51.141-82.182 95.846M582.217 176.011c-34.231-8.633-64.163 1.024-87.246 27.414-15.973 18.315-25.161 39.79-19.104 65.595 57.227-10.737 112.23-20.977 169.34-31.655-11.41-32.241-31.159-53.394-62.991-61.353M477.711 285.989c7.724 30.661 26.917 49.445 54.418 58.983 37.010 12.697 69.953 3.83 95.581-26.039 15.302-17.847 25.249-38.385 18.433-64.423-56.583 10.533-111.587 20.831-168.433 31.481z" fill="#515151" /></svg>